# xmcd
#
# Track frame offsets:
#	150
#	27514
#	48690
#	85597
#	109649
#
# Disc length: 1849 seconds
#
# Revision: 0
# Processed by: cddbd v1.5.2PL0 Copyright (c) Steve Scherf et al.
# Submitted via: FairStars CD Ripper 1.52
#
DISCID=37073705
DTITLE=Aredes - Durma bem
DYEAR=2000
DGENRE=Other
TTITLE0=Angelus
TTITLE1=Sonus
TTITLE2=Chorales
TTITLE3=Lunaris
TTITLE4=Galactica
EXTD=
EXTT0=
EXTT1=
EXTT2=
EXTT3=
EXTT4=
PLAYORDER=
